<svg width="35" height="35" viewBox="0 0 35 35" fill="none" xmlns="http://www.w3.org/2000/svg">
<path d="M20.4166 2.91669H8.74992C7.97637 2.91669 7.2345 3.22398 6.68752 3.77096C6.14054 4.31794 5.83325 5.05981 5.83325 5.83335V29.1667C5.83325 29.9402 6.14054 30.6821 6.68752 31.2291C7.2345 31.7761 7.97637 32.0834 8.74992 32.0834H26.2499C27.0235 32.0834 27.7653 31.7761 28.3123 31.2291C28.8593 30.6821 29.1666 29.9402 29.1666 29.1667V11.6667M20.4166 2.91669L29.1666 11.6667M20.4166 2.91669V11.6667H29.1666M23.3333 18.9584H11.6666M23.3333 24.7917H11.6666M14.5833 13.125H11.6666" stroke="#1E1E1E" stroke-width="4" stroke-linecap="round" stroke-linejoin="round"/>
</svg>
