<svg width="80" height="80" viewBox="0 0 80 80" fill="none" xmlns="http://www.w3.org/2000/svg">
<g filter="url(#filter0_i_82_1174)">
<rect width="80" height="80" rx="20" fill="#FF8867"/>
<path d="M33.4375 28.3333C33.4375 29.9442 32.1317 31.25 30.5209 31.25C28.91 31.25 27.6042 29.9442 27.6042 28.3333C27.6042 26.7225 28.91 25.4167 30.5209 25.4167C32.1317 25.4167 33.4375 26.7225 33.4375 28.3333Z" fill="white" fill-opacity="0.8"/>
<path d="M40 28.3333H50.2083M29.7916 40H50.2083M29.7916 51.6667H50.2083M24.945 66.25H55.0549C57.2888 66.25 58.4058 66.25 59.1888 65.6811C59.4416 65.4974 59.664 65.275 59.8478 65.0221C60.4166 64.2391 60.4166 63.1222 60.4166 60.8883V19.1117C60.4166 16.8778 60.4166 15.7609 59.8478 14.9779C59.664 14.725 59.4416 14.5026 59.1888 14.3189C58.4058 13.75 57.2888 13.75 55.0549 13.75H24.945C22.7111 13.75 21.5942 13.75 20.8112 14.3189C20.5583 14.5026 20.3359 14.725 20.1522 14.9779C19.5833 15.7609 19.5833 16.8778 19.5833 19.1117V60.8883C19.5833 63.1222 19.5833 64.2391 20.1522 65.0221C20.3359 65.275 20.5583 65.4974 20.8112 65.6811C21.5942 66.25 22.7111 66.25 24.945 66.25Z" stroke="white" stroke-opacity="0.8" stroke-width="1.48936" stroke-linecap="round" stroke-linejoin="round"/>
</g>
<defs>
<filter id="filter0_i_82_1174" x="0" y="0" width="84" height="84" filterUnits="userSpaceOnUse" color-interpolation-filters="sRGB">
<feFlood flood-opacity="0" result="BackgroundImageFix"/>
<feBlend mode="normal" in="SourceGraphic" in2="BackgroundImageFix" result="shape"/>
<feColorMatrix in="SourceAlpha" type="matrix" values="0 0 0 0 0 0 0 0 0 0 0 0 0 0 0 0 0 0 127 0" result="hardAlpha"/>
<feOffset dx="5" dy="5"/>
<feGaussianBlur stdDeviation="2"/>
<feComposite in2="hardAlpha" operator="arithmetic" k2="-1" k3="1"/>
<feColorMatrix type="matrix" values="0 0 0 0 0 0 0 0 0 0 0 0 0 0 0 0 0 0 0.25 0"/>
<feBlend mode="normal" in2="shape" result="effect1_innerShadow_82_1174"/>
</filter>
</defs>
</svg>
