<svg width="40" height="40" viewBox="0 0 40 40" fill="none" xmlns="http://www.w3.org/2000/svg">
<g filter="url(#filter0_i_100_1078)">
<circle cx="20" cy="20" r="20" transform="rotate(180 20 20)" fill="#D9D9D9"/>
<path d="M7.29289 19.2929C6.90237 19.6834 6.90237 20.3166 7.29289 20.7071L13.6569 27.0711C14.0474 27.4616 14.6805 27.4616 15.0711 27.0711C15.4616 26.6805 15.4616 26.0474 15.0711 25.6569L9.41421 20L15.0711 14.3431C15.4616 13.9526 15.4616 13.3195 15.0711 12.9289C14.6805 12.5384 14.0474 12.5384 13.6569 12.9289L7.29289 19.2929ZM34 20V19H8V20V21H34V20Z" fill="black"/>
</g>
<defs>
<filter id="filter0_i_100_1078" x="0" y="0" width="44" height="44" filterUnits="userSpaceOnUse" color-interpolation-filters="sRGB">
<feFlood flood-opacity="0" result="BackgroundImageFix"/>
<feBlend mode="normal" in="SourceGraphic" in2="BackgroundImageFix" result="shape"/>
<feColorMatrix in="SourceAlpha" type="matrix" values="0 0 0 0 0 0 0 0 0 0 0 0 0 0 0 0 0 0 127 0" result="hardAlpha"/>
<feOffset dx="5" dy="5"/>
<feGaussianBlur stdDeviation="2"/>
<feComposite in2="hardAlpha" operator="arithmetic" k2="-1" k3="1"/>
<feColorMatrix type="matrix" values="0 0 0 0 0 0 0 0 0 0 0 0 0 0 0 0 0 0 0.25 0"/>
<feBlend mode="normal" in2="shape" result="effect1_innerShadow_100_1078"/>
</filter>
</defs>
</svg>
