<svg width="80" height="80" viewBox="0 0 80 80" fill="none" xmlns="http://www.w3.org/2000/svg">
<g filter="url(#filter0_i_82_1153)">
<rect width="80" height="80" rx="20" fill="#5FE6E4"/>
<path d="M33.7255 56.5743V56.5743C32.8638 58.8944 32.4329 60.0544 32.7959 60.9482C32.9346 61.2898 33.1476 61.5962 33.4195 61.8451C34.1311 62.4966 35.3685 62.4966 37.8434 62.4966H63.0166C65.5917 62.4966 66.8792 62.4966 67.6016 61.7954C67.831 61.5726 68.0152 61.3077 68.1442 61.015C68.55 60.0937 68.1017 58.8868 67.2051 56.4728L63.5899 46.7397C62.8485 44.7436 62.4778 43.7456 61.7435 43.0896C61.5032 42.875 61.2378 42.6904 60.9529 42.5399C60.0823 42.0799 59.0176 42.0799 56.8883 42.0799H45.8326C45.3439 42.0799 45.0995 42.0799 44.8581 42.1096C44.7777 42.1195 44.6976 42.1319 44.6179 42.1466C44.3788 42.191 44.1457 42.2646 43.6797 42.4118L42.4217 42.8091M28.8427 28.9549C25.6211 28.9549 23.0094 26.3433 23.0094 23.1216C23.0094 19.8999 25.6211 17.2883 28.8427 17.2883C32.0644 17.2883 34.676 19.8999 34.676 23.1216C34.676 26.3433 32.0644 28.9549 28.8427 28.9549ZM50.7177 34.7883C47.4961 34.7883 44.8844 32.1766 44.8844 28.9549C44.8844 25.7333 47.4961 23.1216 50.7177 23.1216C53.9394 23.1216 56.551 25.7333 56.551 28.9549C56.551 32.1766 53.9394 34.7883 50.7177 34.7883ZM16.0767 56.6633H41.1416C43.7167 56.6633 45.0042 56.6633 45.7266 55.9621C45.956 55.7393 46.1402 55.4743 46.2692 55.1817C46.675 54.2604 46.2267 53.0534 45.3301 50.6395L41.7149 40.9064C40.9735 38.9103 40.6028 37.9123 39.8685 37.2563C39.6282 37.0417 39.3628 36.8571 39.0779 36.7066C38.2073 36.2466 37.1426 36.2466 35.0133 36.2466H22.205C20.0757 36.2466 19.011 36.2466 18.1404 36.7066C17.8555 36.8571 17.5901 37.0417 17.3498 37.2563C16.6155 37.9123 16.2448 38.9103 15.5034 40.9064L11.8882 50.6395C10.9916 53.0534 10.5433 54.2604 10.9491 55.1817C11.0781 55.4743 11.2623 55.7393 11.4918 55.9621C12.2141 56.6633 13.5016 56.6633 16.0767 56.6633Z" stroke="white" stroke-opacity="0.8" stroke-width="1.48936" stroke-linejoin="round"/>
</g>
<defs>
<filter id="filter0_i_82_1153" x="0" y="0" width="84" height="84" filterUnits="userSpaceOnUse" color-interpolation-filters="sRGB">
<feFlood flood-opacity="0" result="BackgroundImageFix"/>
<feBlend mode="normal" in="SourceGraphic" in2="BackgroundImageFix" result="shape"/>
<feColorMatrix in="SourceAlpha" type="matrix" values="0 0 0 0 0 0 0 0 0 0 0 0 0 0 0 0 0 0 127 0" result="hardAlpha"/>
<feOffset dx="5" dy="5"/>
<feGaussianBlur stdDeviation="2"/>
<feComposite in2="hardAlpha" operator="arithmetic" k2="-1" k3="1"/>
<feColorMatrix type="matrix" values="0 0 0 0 0 0 0 0 0 0 0 0 0 0 0 0 0 0 0.25 0"/>
<feBlend mode="normal" in2="shape" result="effect1_innerShadow_82_1153"/>
</filter>
</defs>
</svg>
