<svg width="35" height="35" viewBox="0 0 35 35" fill="none" xmlns="http://www.w3.org/2000/svg">
<path d="M7.29167 27.7083H9.36979L23.625 13.4531L21.5469 11.375L7.29167 25.6302V27.7083ZM4.375 30.625V24.4271L23.625 5.21354C23.9167 4.94618 24.2387 4.73958 24.5911 4.59375C24.9436 4.44792 25.3142 4.375 25.7031 4.375C26.092 4.375 26.4688 4.44792 26.8333 4.59375C27.1979 4.73958 27.5139 4.95833 27.7813 5.25L29.7865 7.29167C30.0781 7.55903 30.2908 7.875 30.4245 8.23958C30.5582 8.60417 30.625 8.96875 30.625 9.33333C30.625 9.72222 30.5582 10.0929 30.4245 10.4453C30.2908 10.7977 30.0781 11.1198 29.7865 11.4115L10.5729 30.625H4.375ZM22.5677 12.4323L21.5469 11.375L23.625 13.4531L22.5677 12.4323Z" fill="#1D1B20"/>
</svg>
