<svg width="80" height="80" viewBox="0 0 80 80" fill="none" xmlns="http://www.w3.org/2000/svg">
<g filter="url(#filter0_i_82_1180)">
<rect width="80" height="80" rx="20" fill="#A8D9D2"/>
<path d="M33.6812 14.2355C36.3138 11.6028 37.6302 10.2865 39.2234 10.0342C39.7379 9.95266 40.2621 9.95266 40.7766 10.0342C42.3698 10.2865 43.6862 11.6028 46.3188 14.2355L63.6326 31.5493C64.7788 32.6955 65.3519 33.2686 65.7089 33.9692C65.827 34.2009 65.9266 34.4416 66.007 34.6889C66.25 35.4367 66.25 36.2472 66.25 37.8681V60.8883C66.25 63.1222 66.25 64.2391 65.6811 65.0221C65.4974 65.275 65.275 65.4974 65.0221 65.6811C64.2391 66.25 63.1222 66.25 60.8883 66.25H54.1117C51.8778 66.25 50.7609 66.25 49.9779 65.6811C49.725 65.4974 49.5026 65.275 49.3189 65.0221C48.75 64.2391 48.75 63.1222 48.75 60.8883V51.195C48.75 48.9611 48.75 47.8442 48.1811 47.0612C47.9974 46.8083 47.775 46.5859 47.5221 46.4022C46.7391 45.8333 45.6222 45.8333 43.3883 45.8333H36.6117C34.3778 45.8333 33.2609 45.8333 32.4779 46.4022C32.225 46.5859 32.0026 46.8083 31.8189 47.0612C31.25 47.8442 31.25 48.9611 31.25 51.195V60.8883C31.25 63.1222 31.25 64.2391 30.6811 65.0221C30.4974 65.275 30.275 65.4974 30.0221 65.6811C29.2391 66.25 28.1222 66.25 25.8883 66.25H19.1117C16.8778 66.25 15.7609 66.25 14.9779 65.6811C14.725 65.4974 14.5026 65.275 14.3189 65.0221C13.75 64.2391 13.75 63.1222 13.75 60.8883V37.8681C13.75 36.2472 13.75 35.4367 13.993 34.6889C14.0733 34.4416 14.173 34.2009 14.2911 33.9692C14.6481 33.2686 15.2212 32.6955 16.3673 31.5493L33.6812 14.2355Z" stroke="white" stroke-width="1.48936" stroke-linejoin="round"/>
</g>
<defs>
<filter id="filter0_i_82_1180" x="0" y="0" width="84" height="84" filterUnits="userSpaceOnUse" color-interpolation-filters="sRGB">
<feFlood flood-opacity="0" result="BackgroundImageFix"/>
<feBlend mode="normal" in="SourceGraphic" in2="BackgroundImageFix" result="shape"/>
<feColorMatrix in="SourceAlpha" type="matrix" values="0 0 0 0 0 0 0 0 0 0 0 0 0 0 0 0 0 0 127 0" result="hardAlpha"/>
<feOffset dx="5" dy="5"/>
<feGaussianBlur stdDeviation="2"/>
<feComposite in2="hardAlpha" operator="arithmetic" k2="-1" k3="1"/>
<feColorMatrix type="matrix" values="0 0 0 0 0 0 0 0 0 0 0 0 0 0 0 0 0 0 0.25 0"/>
<feBlend mode="normal" in2="shape" result="effect1_innerShadow_82_1180"/>
</filter>
</defs>
</svg>
