<?xml version="1.0" encoding="UTF-8"?>
<svg version="1.1" xmlns="http://www.w3.org/2000/svg" width="512" height="512">
<path d="M0 0 C168.96 0 337.92 0 512 0 C512 168.96 512 337.92 512 512 C343.04 512 174.08 512 0 512 C0 343.04 0 174.08 0 0 Z " fill="#FDFDFD" transform="translate(0,0)"/>
<path d="M0 0 C168.96 0 337.92 0 512 0 C512 128.7 512 257.4 512 390 C511.67 390 511.34 390 511 390 C510.79246094 388.741875 510.58492188 387.48375 510.37109375 386.1875 C508.5328118 375.75350993 505.99462836 366.54383271 501.390625 356.9921875 C500 354 500 354 500 352 C499.34 352 498.68 352 498 352 C497.59910156 351.2471875 497.19820313 350.494375 496.78515625 349.71875 C487.71836594 332.77762706 478.13262883 316.12423911 468.5 299.5 C467.5663725 297.88673828 466.63277834 296.27345727 465.69921875 294.66015625 C463.9778877 291.68572074 462.25091809 288.71468476 460.51953125 285.74609375 C459.78366972 284.4766694 459.04798128 283.20714469 458.3125 281.9375 C457.34763672 280.28041016 457.34763672 280.28041016 456.36328125 278.58984375 C455 276 455 276 455 274 C454.34 274 453.68 274 453 274 C452.57589844 273.11699219 452.15179688 272.23398437 451.71484375 271.32421875 C448.44978867 264.6126644 445.05143491 258.19103185 440.87109375 251.98828125 C438.61697723 248.38828305 436.62781276 244.67341242 434.60864258 240.93774414 C432.04473839 236.25547687 429.33191582 231.66307826 426.625 227.0625 C419.29853062 214.55810344 412.09602157 201.98522015 404.93457031 189.38574219 C403.54763124 186.95842378 402.15187186 184.53782625 400.74511719 182.12207031 C400.3741391 181.48185944 400.00316101 180.84164856 399.62094116 180.18203735 C398.90295175 178.94364886 398.18158524 177.70721064 397.45645142 176.47299194 C395 172.22464564 395 172.22464564 395 170 C394.34 170 393.68 170 393 170 C392.45472656 168.87464844 392.45472656 168.87464844 391.8984375 167.7265625 C389.02941716 161.88553134 386.02709738 156.22581501 382.625 150.6796875 C380.73734823 147.56687713 378.9255688 144.41359591 377.125 141.25 C376.78597656 140.65501709 376.44695312 140.06003418 376.09765625 139.44702148 C374.41732181 136.49573597 372.74015556 133.54265284 371.0625 130.58984375 C367.5055018 124.3435828 363.9064692 118.12609216 360.25 111.9375 C356.44146262 105.49108829 352.70572336 99.00601065 349 92.5 C347.48264004 89.84474084 345.96455556 87.18989714 344.44628906 84.53515625 C343.51282464 82.89891476 342.58226956 81.26100846 341.65527344 79.62109375 C328.30329513 56.01471512 311.04713931 34.65633076 283.83984375 26.71484375 C265.9325361 21.92517833 247.97378973 21.3102369 230 26 C229.1853125 26.20496094 228.370625 26.40992187 227.53125 26.62109375 C202.32941542 33.97162884 185.54576203 53.9894313 173.0625 75.8125 C171.83586184 77.93820818 170.60800715 80.06321485 169.37890625 82.1875 C168.50516357 83.69763672 168.50516357 83.69763672 167.61376953 85.23828125 C165.04979364 89.62613228 162.36216621 93.93082338 159.671875 98.2421875 C157.41528125 101.96451271 155.36467635 105.7851912 153.31640625 109.625 C152.19353886 111.65082604 151.01091349 113.54013298 149.6875 115.4375 C148.17396959 117.73582396 147.41376225 119.31054536 147 122 C146.34 122 145.68 122 145 122 C144.76023438 122.83402344 144.52046875 123.66804688 144.2734375 124.52734375 C142.8020063 128.5399276 140.84063141 131.92499921 138.625 135.5625 C137.72004165 137.07343341 136.81645789 138.58519074 135.9140625 140.09765625 C135.4387207 140.89316895 134.96337891 141.68868164 134.47363281 142.50830078 C131.93014808 146.80896432 129.46796217 151.15570226 127 155.5 C122.75452946 162.96640865 118.44833663 170.39222224 114.03320312 177.75976562 C112.41121442 180.48654797 111.00680915 182.97957254 110 186 C109.34 186 108.68 186 108 186 C107.74734375 186.86238281 107.4946875 187.72476563 107.234375 188.61328125 C105.93637345 192.1745703 104.29317764 194.99998449 102.25 198.1875 C99.15270034 203.03465203 96.35540985 207.97444854 93.62011719 213.03491211 C90.83323034 218.13538541 87.91251883 223.15804349 85 228.1875 C84.35208496 229.30882324 83.70416992 230.43014648 83.03662109 231.58544922 C78.00819142 240.2833976 72.93987971 248.9579369 67.8671875 257.63012695 C63.85532487 264.50078677 59.92236345 271.41009492 56.0625 278.3671875 C54.50812542 281.1398138 52.88590906 283.86537112 51.2421875 286.5859375 C47.42854579 292.91208202 43.7796392 299.33133335 40.125 305.75 C39.44932224 306.93495485 38.77354131 308.11985088 38.09765625 309.3046875 C34.52201312 315.57350162 34.52201312 315.57350162 30.95022583 321.84451294 C26.52424066 329.62117441 22.05062293 337.36357998 17.42773438 345.02539062 C14.9161104 349.24603695 12.83593193 353.44284856 11 358 C10.34 358 9.68 358 9 358 C8.87367187 358.73992187 8.74734375 359.47984375 8.6171875 360.2421875 C8.04208135 362.8119656 7.2500407 364.76154241 6.125 367.125 C2.84169059 374.98576998 2.13588817 383.61852212 1 392 C0.67 392 0.34 392 0 392 C0 262.64 0 133.28 0 0 Z " fill="#FEFEFE" transform="translate(0,0)"/>
<path d="M0 0 C1.75570312 0.85078125 1.75570312 0.85078125 3.546875 1.71875 C11.89941342 5.88548435 19.06701773 10.68403071 26 17 C26.69351562 17.61230469 27.38703125 18.22460938 28.1015625 18.85546875 C38.08091939 28.17881214 44.79501721 40.06885032 51.23046875 51.953125 C54.38131102 57.751139 57.72162014 63.43502916 61.0625 69.125 C65.03847788 75.90560958 68.98762651 82.69540607 72.8125 89.5625 C75.61847966 94.59900549 78.51305917 99.56865705 81.5 104.5 C85.81893705 111.6319909 89.93296391 118.86854513 93.97753906 126.15917969 C94.94620934 127.90315626 95.92211415 129.64310876 96.8984375 131.3828125 C97.44757813 132.37023437 97.99671875 133.35765625 98.5625 134.375 C99.03816406 135.22835937 99.51382812 136.08171875 100.00390625 136.9609375 C101 139 101 139 101 141 C101.66 141 102.32 141 103 141 C103.60303955 142.09332642 103.60303955 142.09332642 104.21826172 143.20874023 C113.95265289 160.88356518 113.95265289 160.88356518 124.07080078 178.33984375 C128.92355197 186.50535867 133.59900716 194.77343758 138.29272461 203.03100586 C142.89149702 211.10802316 147.58240296 219.11486768 152.484375 227.01171875 C152.86207031 227.62466797 153.23976563 228.23761719 153.62890625 228.86914062 C154.38585004 230.09686653 155.14904047 231.32075988 155.91796875 232.54101562 C158.4124041 236.61928795 159.8774075 240.34840662 161 245 C161.66 245 162.32 245 163 245 C163.36649658 245.65782471 163.73299316 246.31564941 164.1105957 246.9934082 C170.71250234 258.83482521 177.33784838 270.658093 184.15869141 282.375 C187.41773448 287.97780099 190.61906639 293.61038731 193.78051758 299.26879883 C195.59591904 302.51574103 197.42847731 305.7503126 199.30078125 308.96484375 C199.67050049 309.60188232 200.04021973 310.2389209 200.42114258 310.89526367 C201.43335798 312.63543122 202.45086935 314.37251516 203.46875 316.109375 C204.73243959 318.49491147 205.5398055 320.3666648 206 323 C206.66 323 207.32 323 208 323 C233.40080407 370.99086342 220 433.30946233 220 483 C51.04 483 -117.92 483 -292 483 C-292 348.48543689 -292 348.48543689 -283 329 C-282.34 329 -281.68 329 -281 329 C-280.77699219 328.03707031 -280.55398438 327.07414062 -280.32421875 326.08203125 C-278.91737998 321.19054224 -276.38740746 317.04686463 -273.8125 312.6875 C-273.29002686 311.78813721 -272.76755371 310.88877441 -272.22924805 309.9621582 C-271.09461336 308.00949628 -269.95687618 306.05863456 -268.81640625 304.109375 C-265.62619499 298.64828218 -262.47208753 293.16634652 -259.3125 287.6875 C-258.67207764 286.57938965 -258.03165527 285.4712793 -257.37182617 284.32958984 C-253.9159856 278.34577088 -250.49134208 272.34708083 -247.125 266.3125 C-244.04755581 260.79856896 -240.84521555 255.37417291 -237.57348633 249.97363281 C-234.40176758 244.71744832 -231.34751457 239.39858759 -228.3125 234.0625 C-223.90043179 226.30586818 -219.44021783 218.5793775 -214.9375 210.875 C-214.34565918 209.86195801 -213.75381836 208.84891602 -213.14404297 207.80517578 C-211.97759481 205.80872394 -210.81109215 203.81230394 -209.64453125 201.81591797 C-200.96355391 186.95154852 -192.44406738 172.00020884 -184 157 C-183.34 157 -182.68 157 -182 157 C-181.93039063 156.34386719 -181.86078125 155.68773437 -181.7890625 155.01171875 C-180.69206817 150.82467602 -178.59128551 147.50630918 -176.375 143.8125 C-175.37574656 142.11751488 -174.37708197 140.42218252 -173.37890625 138.7265625 C-172.56703857 137.35419434 -172.56703857 137.35419434 -171.73876953 135.95410156 C-168.55985036 130.55324198 -165.43996438 125.11826003 -162.3125 119.6875 C-161.67223877 118.57753662 -161.03197754 117.46757324 -160.37231445 116.32397461 C-155.89461837 108.56082041 -151.43263553 100.78897617 -147 93 C-146.34 93 -145.68 93 -145 93 C-144.91105469 92.30132812 -144.82210937 91.60265625 -144.73046875 90.8828125 C-143.8379808 87.36058732 -142.28078711 84.92678231 -140.3125 81.875 C-137.19584792 77.02149521 -134.37822198 72.08137264 -131.63549805 67.00683594 C-115.53414821 37.40477226 -98.46729939 7.0346405 -64.0625 -3.21484375 C-43.68770847 -8.93901386 -19.39358323 -9.75628114 0 0 Z M-75.20605469 52.66650391 C-78.49885303 56.94965124 -81.09958368 61.61480576 -83.75 66.3125 C-84.35706787 67.37065918 -84.96413574 68.42881836 -85.58959961 69.51904297 C-86.8216311 71.66737463 -88.05011418 73.81774545 -89.27490234 75.97021484 C-91.68351516 80.20045614 -94.12184872 84.41319263 -96.5625 88.625 C-96.99554443 89.37499268 -97.42858887 90.12498535 -97.87475586 90.89770508 C-101.99560584 98.02531382 -106.19206701 105.1079221 -110.41040039 112.17822266 C-113.52664123 117.42295191 -116.50160832 122.7241874 -119.40405273 128.08984375 C-122.38661553 133.52844685 -125.51441903 138.88393802 -128.625 144.25 C-129.92979861 146.50514405 -131.23448924 148.76035058 -132.5390625 151.015625 C-133.14669434 152.06540527 -133.75432617 153.11518555 -134.38037109 154.19677734 C-135.63922505 156.37557763 -136.89374046 158.5565313 -138.140625 160.7421875 C-140.45382381 164.79514508 -142.78754806 168.83599298 -145.125 172.875 C-145.60364502 173.70217529 -146.08229004 174.52935059 -146.57543945 175.3815918 C-149.75666263 180.87214736 -152.96292622 186.34731241 -156.1875 191.8125 C-160.13009807 198.49837435 -164.00696382 205.21894741 -167.84277344 211.96679688 C-170.74439233 217.06483108 -173.65930777 222.15529909 -176.57104492 227.24755859 C-178.79562952 231.13890888 -181.01948303 235.03059121 -183.23046875 238.9296875 C-186.95165928 245.48076543 -190.76353551 251.96599729 -194.65625 258.41577148 C-197.38566022 262.94829251 -200.0334554 267.52192457 -202.64428711 272.12402344 C-205.90462119 277.8594639 -209.23307287 283.55445694 -212.5625 289.25 C-218.87155983 300.04896905 -225.14572837 310.86739356 -231.37109375 321.71484375 C-233.70225849 325.77123197 -236.06821467 329.80305485 -238.47265625 333.81640625 C-247.56910074 349.10329885 -253.74856994 362.7634602 -249.9375 380.9375 C-246.33041776 393.81512071 -238.5470332 406.67368985 -226.76237488 413.5569706 C-211.17977788 421.69712052 -194.551695 420.72317912 -177.46379232 420.65362334 C-173.31099529 420.64221444 -169.15829988 420.65981935 -165.00552368 420.67352295 C-156.89021075 420.69565906 -148.77513012 420.69099737 -140.6598084 420.67645974 C-134.05943105 420.66512937 -127.45911843 420.66365296 -120.85873413 420.66907883 C-119.91634799 420.66984499 -118.97396185 420.67061116 -118.00301856 420.67140054 C-116.08808078 420.6729993 -114.17314303 420.67462037 -112.25820529 420.6762635 C-94.33691472 420.69049279 -76.41575241 420.67417264 -58.49448287 420.64726166 C-43.14502076 420.62492546 -27.79574777 420.62880638 -12.44628906 420.65185547 C5.4145185 420.67866342 23.2752139 420.68911976 41.13603878 420.67379415 C43.04360388 420.67220154 44.951169 420.67062969 46.85873413 420.66907883 C47.79708865 420.66830745 48.73544316 420.66753607 49.70223266 420.66674132 C56.28830191 420.66243928 62.87429951 420.66967846 69.46035767 420.68147659 C77.49574822 420.69555577 85.53089481 420.69158848 93.56625772 420.66507287 C97.65952607 420.6520071 101.75238894 420.64665713 105.84565353 420.66331863 C137.04165247 420.88181284 137.04165247 420.88181284 163.6875 405.8125 C173.4585309 395.37158755 178.1552248 383.59185823 178.3125 369.5 C178.35600586 368.24703125 178.35600586 368.24703125 178.40039062 366.96875 C178.51766909 355.13264668 173.60688114 345.574893 167.5625 335.6875 C166.30453211 333.58159911 165.04805797 331.47480531 163.79296875 329.3671875 C163.1592334 328.30854492 162.52549805 327.24990234 161.87255859 326.15917969 C158.96432434 321.25271929 156.16682778 316.28584113 153.375 311.3125 C152.31670066 309.43212594 151.25810795 307.55191696 150.19921875 305.671875 C149.67763184 304.74568359 149.15604492 303.81949219 148.61865234 302.86523438 C144.11356489 294.89061803 139.55289485 286.94739022 135 279 C134.34 279 133.68 279 133 279 C132.7525 277.989375 132.505 276.97875 132.25 275.9375 C131.10339362 271.86621646 129.20258527 268.59755594 127 265 C126.34 265 125.68 265 125 265 C124.731875 264.13375 124.46375 263.2675 124.1875 262.375 C123.02888013 259.08208036 121.61790161 256.08872125 120 253 C119.34 253 118.68 253 118 253 C117.75765625 252.17242187 117.5153125 251.34484375 117.265625 250.4921875 C115.79491032 246.4341044 113.87568985 242.87016263 111.75 239.125 C111.31888916 238.35687988 110.88777832 237.58875977 110.44360352 236.79736328 C106.09194761 229.08261345 101.61315542 221.44122961 97.13525391 213.79931641 C92.32575614 205.58645952 87.62407746 197.31844622 83 189 C82.34 189 81.68 189 81 189 C80.8868042 188.2673291 80.7736084 187.5346582 80.65698242 186.77978516 C79.97810724 183.90736866 79.03532014 182.02160273 77.48828125 179.5234375 C76.97716797 178.68683594 76.46605469 177.85023438 75.93945312 176.98828125 C75.40255859 176.12589844 74.86566406 175.26351562 74.3125 174.375 C70.54258469 168.26238513 66.93340007 162.11258439 63.52514648 155.79052734 C60.91167324 151.0087122 58.1366372 146.32227682 55.375 141.625 C50.38007503 133.09772323 45.43780114 124.54353041 40.55151367 115.95361328 C36.64870478 109.1050558 32.67342245 102.30044593 28.6875 95.5 C23.95378108 87.41885638 19.31817591 79.31167694 15 71 C14.34 71 13.68 71 13 71 C12.79375 70.21625 12.5875 69.4325 12.375 68.625 C7.56600974 55.94675294 -1.00868205 46.17365177 -12.71484375 39.47265625 C-20.76493735 35.8639936 -28.13279521 34.46402886 -36.9375 34.5625 C-37.90534424 34.57152344 -38.87318848 34.58054688 -39.87036133 34.58984375 C-54.70629453 34.95013962 -65.60694972 41.42414467 -75.20605469 52.66650391 Z " fill="#020202" transform="translate(292,29)"/>
<path d="M0 0 C0.33 0 0.66 0 1 0 C1 35.64 1 71.28 1 108 C-167.96 108 -336.92 108 -511 108 C-511 74.34 -511 40.68 -511 6 C-510.67 6 -510.34 6 -510 6 C-509.75765625 7.11117188 -509.5153125 8.22234375 -509.265625 9.3671875 C-503.4681444 35.37679363 -490.5749311 57.50404769 -467.75 72.125 C-445.91224804 85.08256645 -424.06532804 85.60111555 -399.38623118 85.52289867 C-395.11214771 85.51375965 -390.83812695 85.52786117 -386.5640564 85.53881836 C-378.21509533 85.55651381 -369.8662789 85.55280417 -361.51731239 85.5411678 C-354.72724948 85.53209938 -347.93722682 85.53092413 -341.14715958 85.53526306 C-340.1772908 85.53587599 -339.20742203 85.53648893 -338.2081633 85.53712043 C-336.2373386 85.53839945 -334.26651391 85.53969631 -332.29568924 85.5410108 C-313.85841039 85.55238998 -295.42121138 85.53934417 -276.98394562 85.51780933 C-261.19221941 85.49993511 -245.40061082 85.50305031 -229.60888672 85.52148438 C-211.23022152 85.54292846 -192.85162607 85.55129754 -174.4729501 85.53903532 C-172.51036971 85.53776124 -170.54778931 85.53650375 -168.58520889 85.53526306 C-167.61980325 85.53464596 -166.65439761 85.53402886 -165.65973725 85.53339306 C-158.88329803 85.52995118 -152.10690336 85.5357432 -145.33047104 85.54518127 C-137.06459702 85.55644181 -128.79887479 85.5532762 -120.53301798 85.5320583 C-116.32232179 85.52160303 -112.11187795 85.51733083 -107.90118408 85.53065491 C-104.03597309 85.54270013 -100.17124496 85.53582021 -96.3060769 85.5147447 C-94.26882363 85.50826108 -92.23153599 85.52110513 -90.19431961 85.53497362 C-68.52042184 85.35366147 -46.48621507 77.34078797 -30.65625 62.3828125 C-29 61 -29 61 -26 60 C-25.28693226 58.69089472 -24.62342967 57.35408924 -24 56 C-23.13375 55.030625 -22.2675 54.06125 -21.375 53.0625 C-8.69346052 38.58260039 -0.90350205 19.19941851 0 0 Z " fill="#FDFDFD" transform="translate(511,404)"/>
<path d="M0 0 C1.98259307 1.20945832 3.65571512 2.51667974 5.3984375 4.046875 C6.4709375 4.76875 7.5434375 5.490625 8.6484375 6.234375 C14.07439394 11.78364863 15.87267906 18.78270965 15.82022095 26.41508484 C15.7777272 27.71202019 15.7777272 27.71202019 15.734375 29.03515625 C15.71085464 30.44538811 15.71085464 30.44538811 15.68685913 31.8841095 C15.43827886 43.67947862 14.73613101 55.45979961 14.0234375 67.234375 C13.88522633 69.59885634 13.74737109 71.96335851 13.60986328 74.32788086 C12.86872065 86.93761286 12.05956507 99.5372069 11.02563477 112.12670898 C10.59038497 117.62601938 10.31164077 123.10608882 10.16015625 128.62109375 C10.12486816 129.90169678 10.08958008 131.1822998 10.05322266 132.50170898 C9.99362195 134.95274875 9.94680889 137.40414816 9.91552734 139.85571289 C9.70048725 149.32233291 7.89692328 155.07289026 1.3984375 162.046875 C-3.03710042 165.94477196 -7.46705133 166.40398141 -13.22265625 166.328125 C-18.49050672 165.70532494 -22.37019107 163.34305546 -25.9765625 159.546875 C-30.4795674 152.61917515 -30.77730413 145.74413813 -31.28515625 137.6640625 C-31.37478134 136.29196625 -31.37478134 136.29196625 -31.46621704 134.89215088 C-31.66041372 131.9022584 -31.84992 128.91209115 -32.0390625 125.921875 C-32.17302041 123.83707198 -32.30705437 121.75227385 -32.44116211 119.66748047 C-33.33237603 105.72217575 -34.14964389 91.77373552 -34.89770508 77.82006836 C-35.28710901 70.57682683 -35.69996126 63.33629063 -36.16796875 56.09765625 C-36.21492386 55.3681073 -36.26187897 54.63855835 -36.31025696 53.88690186 C-36.53262963 50.44327319 -36.75935019 47.0000566 -36.99243164 43.55712891 C-38.67591043 17.80041313 -38.67591043 17.80041313 -30.00390625 6.48046875 C-29.54113281 6.00738281 -29.07835937 5.53429687 -28.6015625 5.046875 C-27.9415625 5.046875 -27.2815625 5.046875 -26.6015625 5.046875 C-26.6015625 4.386875 -26.6015625 3.726875 -26.6015625 3.046875 C-19.03670704 -1.99636197 -8.64337514 -3.16664194 0 0 Z " fill="#020202" transform="translate(266.6015625,166.953125)"/>
<path d="M0 0 C4.99316039 3.12528105 9.94951492 6.71429601 12.140625 12.33984375 C13.8687434 20.47872397 14.97640375 30.15912773 10.53125 37.5625 C5.05102423 44.56672114 -1.102067 48.6155611 -9.90234375 49.72265625 C-18.04535599 50.16178704 -23.62530718 48.67205727 -29.859375 43.33984375 C-36.66712131 36.07919124 -38.34313868 29.65649711 -38.16796875 19.78515625 C-37.51989196 12.54966596 -34.07937577 7.75136782 -28.83203125 2.8828125 C-20.23217128 -3.84381064 -9.78385856 -4.94471988 0 0 Z " fill="#030303" transform="translate(267.859375,353.66015625)"/>
</svg>
