<svg width="80" height="80" viewBox="0 0 80 80" fill="none" xmlns="http://www.w3.org/2000/svg">
<g filter="url(#filter0_i_82_1118)">
<rect width="80" height="80" rx="20" fill="#CF6699"/>
<path d="M13.75 40V19.1117C13.75 16.8778 13.75 15.7609 14.3189 14.9779C14.5026 14.725 14.725 14.5026 14.9779 14.3189C15.7609 13.75 16.8778 13.75 19.1117 13.75H35.2025C36.0294 13.75 36.4429 13.75 36.8327 13.8578C36.9619 13.8936 37.0885 13.938 37.2117 13.9908C37.5834 14.1501 37.9063 14.4084 38.552 14.9249L42.9064 18.4084C43.552 18.925 43.8749 19.1832 44.2466 19.3425C44.3698 19.3953 44.4965 19.4398 44.6257 19.4755C45.0154 19.5833 45.4289 19.5833 46.2558 19.5833H60.8883C63.1222 19.5833 64.2391 19.5833 65.0221 20.1522C65.275 20.3359 65.4974 20.5583 65.6811 20.8112C66.25 21.5942 66.25 22.7112 66.25 24.945V40M35.2025 25.4167H19.1117C16.8778 25.4167 15.7609 25.4167 14.9779 25.9856C14.725 26.1693 14.5026 26.3917 14.3189 26.6445C13.75 27.4275 13.75 28.5445 13.75 30.7784V60.8883C13.75 63.1222 13.75 64.2391 14.3189 65.0221C14.5026 65.275 14.725 65.4974 14.9779 65.6811C15.7609 66.25 16.8778 66.25 19.1117 66.25H60.8883C63.1222 66.25 64.2391 66.25 65.0221 65.6811C65.275 65.4974 65.4974 65.275 65.6811 65.0221C66.25 64.2391 66.25 63.1222 66.25 60.8883V36.6117C66.25 34.3778 66.25 33.2609 65.6811 32.4779C65.4974 32.225 65.275 32.0026 65.0221 31.8189C64.2391 31.25 63.1222 31.25 60.8883 31.25H46.2558C45.4289 31.25 45.0154 31.25 44.6257 31.1422C44.4965 31.1064 44.3698 31.062 44.2466 31.0092C43.8749 30.8499 43.552 30.5916 42.9064 30.0751L38.552 26.5916C37.9063 26.075 37.5834 25.8168 37.2117 25.6575C37.0885 25.6047 36.9619 25.5602 36.8327 25.5245C36.4429 25.4167 36.0294 25.4167 35.2025 25.4167Z" stroke="white" stroke-opacity="0.8" stroke-width="1.48936" stroke-linecap="round" stroke-linejoin="round"/>
</g>
<defs>
<filter id="filter0_i_82_1118" x="0" y="0" width="84" height="84" filterUnits="userSpaceOnUse" color-interpolation-filters="sRGB">
<feFlood flood-opacity="0" result="BackgroundImageFix"/>
<feBlend mode="normal" in="SourceGraphic" in2="BackgroundImageFix" result="shape"/>
<feColorMatrix in="SourceAlpha" type="matrix" values="0 0 0 0 0 0 0 0 0 0 0 0 0 0 0 0 0 0 127 0" result="hardAlpha"/>
<feOffset dx="5" dy="5"/>
<feGaussianBlur stdDeviation="2"/>
<feComposite in2="hardAlpha" operator="arithmetic" k2="-1" k3="1"/>
<feColorMatrix type="matrix" values="0 0 0 0 0 0 0 0 0 0 0 0 0 0 0 0 0 0 0.25 0"/>
<feBlend mode="normal" in2="shape" result="effect1_innerShadow_82_1118"/>
</filter>
</defs>
</svg>
