<svg width="35" height="35" viewBox="0 0 35 35" fill="none" xmlns="http://www.w3.org/2000/svg">
<path d="M17.5001 16.0417V24.7917M13.1251 20.4167H21.8751M32.0834 27.7083C32.0834 28.4819 31.7761 29.2237 31.2291 29.7707C30.6822 30.3177 29.9403 30.625 29.1667 30.625H5.83341C5.05987 30.625 4.318 30.3177 3.77102 29.7707C3.22404 29.2237 2.91675 28.4819 2.91675 27.7083V7.29167C2.91675 6.51812 3.22404 5.77625 3.77102 5.22927C4.318 4.68229 5.05987 4.375 5.83341 4.375H13.1251L16.0417 8.75H29.1667C29.9403 8.75 30.6822 9.05729 31.2291 9.60427C31.7761 10.1513 32.0834 10.8931 32.0834 11.6667V27.7083Z" stroke="#1E1E1E" stroke-width="4" stroke-linecap="round" stroke-linejoin="round"/>
</svg>
