<svg width="80" height="80" viewBox="0 0 80 80" fill="none" xmlns="http://www.w3.org/2000/svg">
<path d="M60.4319 48.6593L62.8059 51.4079C64.2534 53.0837 64.9771 53.9217 65.2701 54.548C66.5773 57.3421 65.0672 60.6418 62.0981 61.479C61.4326 61.6667 60.3254 61.6667 58.111 61.6667H46.6646V63.3333C46.6646 67.0152 43.6798 70 39.9979 70C36.316 70 33.3313 67.0152 33.3313 63.3333V61.6667H21.8888C19.6733 61.6667 18.5655 61.6667 17.8997 61.4788C14.9315 60.6414 13.4218 57.3428 14.7279 54.5491C15.0209 53.9223 15.7449 53.0839 17.193 51.4071L19.5661 48.659C22.5023 45.2589 23.9121 40.8017 23.4654 36.3316C22.5023 26.695 30.0699 18.3333 39.7545 18.3333H33.3313V16.6667C33.3313 12.9848 36.316 10 39.9979 10C43.6798 10 46.6646 12.9848 46.6646 16.6667V18.3333H40.2459C49.9299 18.3333 57.4966 26.6949 56.5325 36.3308C56.0852 40.8013 57.4951 45.2591 60.4319 48.6593Z" fill="white"/>
<path d="M46.6646 61.6667H58.111C60.3254 61.6667 61.4326 61.6667 62.0981 61.479C65.0672 60.6418 66.5773 57.3421 65.2701 54.548C64.9771 53.9217 64.2534 53.0837 62.8059 51.4079L60.4319 48.6593C57.4951 45.2591 56.0852 40.8013 56.5325 36.3308V36.3308C57.4966 26.6949 49.9299 18.3333 40.2459 18.3333H39.7545C30.0699 18.3333 22.5023 26.695 23.4654 36.3316V36.3316C23.9121 40.8017 22.5023 45.2589 19.5661 48.659L17.193 51.4071C15.7449 53.0839 15.0209 53.9223 14.7279 54.5491C13.4218 57.3428 14.9315 60.6414 17.8997 61.4788C18.5655 61.6667 19.6733 61.6667 21.8888 61.6667H33.3313M46.6646 61.6667V63.3333C46.6646 67.0152 43.6798 70 39.9979 70V70C36.316 70 33.3313 67.0152 33.3313 63.3333V61.6667M46.6646 61.6667H33.3313M33.3313 18.3333V16.6667C33.3313 12.9848 36.316 10 39.9979 10V10C43.6798 10 46.6646 12.9848 46.6646 16.6667V18.3333H33.3313Z" stroke="black" stroke-width="5" stroke-linejoin="round"/>
</svg>
