<svg width="150" height="99" viewBox="0 0 150 99" fill="none" xmlns="http://www.w3.org/2000/svg">
<rect width="150" height="99" rx="40" fill="#D9D9D9"/>
<path d="M67.4999 35.6667C67.4999 37.5076 66.0075 39 64.1666 39C62.3256 39 60.8333 37.5076 60.8333 35.6667C60.8333 33.8257 62.3256 32.3333 64.1666 32.3333C66.0075 32.3333 67.4999 33.8257 67.4999 35.6667Z" fill="white" fill-opacity="0.8"/>
<path d="M75.0001 35.6667H86.6667M63.3334 49H86.6667M63.3334 62.3333H86.6667M57.0285 79H92.9717C95.2056 79 96.3225 79 97.1055 78.4311C97.3584 78.2474 97.5808 78.025 97.7645 77.7721C98.3334 76.9891 98.3334 75.8722 98.3334 73.6383V24.3617C98.3334 22.1278 98.3334 21.0109 97.7645 20.2279C97.5808 19.975 97.3584 19.7526 97.1055 19.5689C96.3225 19 95.2056 19 92.9717 19H57.0285C54.7946 19 53.6776 19 52.8946 19.5689C52.6417 19.7526 52.4194 19.975 52.2356 20.2279C51.6667 21.0109 51.6667 22.1278 51.6667 24.3617V73.6383C51.6667 75.8722 51.6667 76.9891 52.2356 77.7721C52.4194 78.025 52.6417 78.2474 52.8946 78.4311C53.6776 79 54.7946 79 57.0285 79Z" stroke="white" stroke-opacity="0.8" stroke-width="1.48936" stroke-linecap="round" stroke-linejoin="round"/>
</svg>
