<svg width="150" height="99" viewBox="0 0 150 99" fill="none" xmlns="http://www.w3.org/2000/svg">
<rect width="150" height="99" rx="40" fill="#FEDE7F"/>
<path d="M51.6667 23.1667C51.6667 22.0611 51.6667 21.5084 51.8117 21.0609C52.1061 20.1519 52.8187 19.4393 53.7276 19.1449C54.1751 19 54.7279 19 55.8334 19V19C56.9389 19 57.4917 19 57.9392 19.1449C58.8482 19.4393 59.5607 20.1519 59.8552 21.0609C60.0001 21.5084 60.0001 22.0611 60.0001 23.1667V74.8333C60.0001 75.9389 60.0001 76.4916 59.8552 76.9391C59.5607 77.8481 58.8482 78.5607 57.9392 78.8551C57.4917 79 56.9389 79 55.8334 79V79C54.7279 79 54.1751 79 53.7276 78.8551C52.8187 78.5607 52.1061 77.8481 51.8117 76.9391C51.6667 76.4916 51.6667 75.9389 51.6667 74.8333V23.1667Z" stroke="white" stroke-opacity="0.8" stroke-width="1.48936" stroke-linejoin="round"/>
<path d="M60.0001 25.6667C73.7202 28.7156 83.2571 28.9757 94.9879 26.4471C96.3777 26.1476 97.0726 25.9978 97.5593 26.2642C97.7179 26.3511 97.8521 26.4594 97.9704 26.5961C98.3334 27.0158 98.3334 27.7106 98.3334 29.1002V53.5735C98.3334 54.466 98.3334 54.9123 98.123 55.2649C98.0555 55.3781 97.9694 55.4861 97.8742 55.5773C97.5777 55.8613 97.1504 55.9595 96.2958 56.1558C83.9552 58.9911 74.2264 58.8281 60.0001 55.6667V25.6667Z" stroke="white" stroke-opacity="0.8" stroke-width="1.48936" stroke-linejoin="round"/>
</svg>
