<svg width="150" height="99" viewBox="0 0 150 99" fill="none" xmlns="http://www.w3.org/2000/svg">
<rect width="150" height="99" rx="40" fill="#A8D9D2"/>
<path d="M61.6667 70V60M75 53.3333V70M88.3333 70V46.6667M56.6667 48.3333L61.5487 42.6377C62.9163 41.0421 63.6001 40.2443 64.3769 39.6363C66.0752 38.307 68.1601 37.5667 70.3164 37.5275C71.3026 37.5096 72.3365 37.6975 74.4041 38.0735V38.0735C77.2481 38.5906 78.6701 38.8491 80.04 38.8442C83.033 38.8335 85.9533 37.9212 88.4202 36.2264C89.5493 35.4507 90.5713 34.4287 92.6153 32.3847L93.3333 31.6667M52.1489 80H97.8511C100.83 80 102.319 80 103.363 79.2415C103.7 78.9965 103.997 78.7 104.241 78.3628C105 77.3188 105 75.8296 105 72.8511V27.1489C105 24.1704 105 22.6812 104.241 21.6372C103.997 21.3 103.7 21.0035 103.363 20.7585C102.319 20 100.83 20 97.8511 20H52.1489C49.1704 20 47.6812 20 46.6372 20.7585C46.3 21.0035 46.0035 21.3 45.7585 21.6372C45 22.6812 45 24.1704 45 27.1489V72.8511C45 75.8296 45 77.3188 45.7585 78.3628C46.0035 78.7 46.3 78.9965 46.6372 79.2415C47.6812 80 49.1704 80 52.1489 80Z" stroke="white" stroke-opacity="0.8" stroke-width="1.48936" stroke-linecap="round" stroke-linejoin="round"/>
</svg>
