<svg width="161" height="60" viewBox="0 0 161 60" fill="none" xmlns="http://www.w3.org/2000/svg">
<path d="M20.2924 2.556L18.2204 3.368V17.592L20.2924 18.46V20H13.7404V18.46L15.8124 17.592V11.432H4.83641V17.592L6.90841 18.46V20H0.356406V18.46L2.42841 17.592V3.368L0.356406 2.556V0.96H6.90841V2.556L4.83641 3.368V9.416H15.8124V3.368L13.7404 2.556V0.96H20.2924V2.556ZM41.8318 18.46V20H35.3918V18.46L37.3518 17.704L35.8398 13.588H27.5798L26.0398 17.732L28.0278 18.46V20H22.0638V18.46L23.9958 17.592L30.3798 0.735999H33.5158L39.8998 17.564L41.8318 18.46ZM35.1118 11.6L31.7238 2.416L28.3078 11.6H35.1118ZM64.6989 3.368V17.62L66.7709 18.46V20H60.3589V18.46L62.2909 17.62V2.808L55.9349 17.62H54.0589L47.6749 2.808V17.62L49.6069 18.46V20H43.5869V18.46L45.6589 17.62V3.368L43.5869 2.556V0.96H49.4949L55.2349 14.484L60.9749 0.96H66.7709V2.556L64.6989 3.368ZM90.9762 3.368V17.62L93.0482 18.46V20H86.6362V18.46L88.5682 17.62V2.808L82.2122 17.62H80.3362L73.9522 2.808V17.62L75.8842 18.46V20H69.8642V18.46L71.9362 17.62V3.368L69.8642 2.556V0.96H75.7722L81.5122 14.484L87.2522 0.96H93.0482V2.556L90.9762 3.368ZM112.522 5.916H110.87L110.142 2.976H100.622V9.416H106.194L106.614 7.26H108.154V13.588H106.614L106.194 11.432H100.622V17.984H110.142L110.87 14.764H112.522V20H96.1416V18.46L98.2136 17.62V3.368L96.1416 2.556V0.96H112.522V5.916ZM133.336 18.46V20H130.116L124.852 12.104H120.008V17.592L122.08 18.46V20H115.528V18.46L117.6 17.592V3.368L115.528 2.556V0.96H126.7C128.511 0.96 129.883 1.436 130.816 2.388C131.75 3.32133 132.216 4.70267 132.216 6.532C132.216 8.156 131.824 9.43467 131.04 10.368C130.275 11.2827 129.146 11.8333 127.652 12.02L131.432 17.62L133.336 18.46ZM120.008 10.088H126.196C127.447 10.088 128.343 9.81733 128.884 9.276C129.426 8.716 129.696 7.80133 129.696 6.532C129.696 5.28133 129.435 4.376 128.912 3.816C128.408 3.256 127.596 2.976 126.476 2.976H120.008V10.088ZM158.559 11.208C158.41 13.0933 157.915 14.7547 157.075 16.192L158.363 17.62L160.351 18.46V20H157.299L155.647 18.068C154.079 19.58 152.128 20.336 149.795 20.336C147.723 20.336 146.118 19.86 144.979 18.908C143.84 17.9373 143.271 16.528 143.271 14.68C143.271 13.6533 143.402 12.7947 143.663 12.104C143.924 11.3947 144.372 10.7693 145.007 10.228C145.642 9.68667 146.538 9.17333 147.695 8.688C147.172 7.904 146.808 7.21333 146.603 6.616C146.398 6 146.295 5.37467 146.295 4.74C146.295 1.996 147.872 0.623999 151.027 0.623999C152.39 0.623999 153.407 0.941332 154.079 1.576C154.77 2.21067 155.115 3.10667 155.115 4.264C155.115 5.42133 154.807 6.37333 154.191 7.12C153.575 7.848 152.446 8.55733 150.803 9.248L155.871 14.848C156.356 13.784 156.599 12.5707 156.599 11.208L155.087 10.34V8.8H160.351V10.34L158.559 11.208ZM151.027 2.388C149.366 2.388 148.535 3.16267 148.535 4.712C148.535 5.64533 148.936 6.71867 149.739 7.932C150.654 7.57733 151.344 7.24133 151.811 6.924C152.296 6.60667 152.632 6.26133 152.819 5.888C153.006 5.496 153.099 5.01067 153.099 4.432C153.099 3.76 152.94 3.256 152.623 2.92C152.306 2.56533 151.774 2.388 151.027 2.388ZM150.131 18.264C151.904 18.264 153.351 17.76 154.471 16.752L148.731 10.088C147.574 10.592 146.79 11.152 146.379 11.768C145.987 12.3653 145.791 13.224 145.791 14.344C145.791 16.9573 147.238 18.264 150.131 18.264ZM22.6728 49.48V51.076L20.8808 51.888V58.328C19.9102 58.6453 18.8368 58.888 17.6608 59.056C16.5035 59.2427 15.4022 59.336 14.3568 59.336C11.1088 59.336 8.67284 58.552 7.04884 56.984C5.44351 55.416 4.64084 52.9147 4.64084 49.48C4.64084 46.064 5.45284 43.572 7.07684 42.004C8.71951 40.4173 11.1462 39.624 14.3568 39.624C16.4102 39.624 18.5848 39.876 20.8808 40.38V45.336H18.9208L18.4448 42.172C17.1195 41.8547 15.7475 41.696 14.3288 41.696C12.5555 41.696 11.1462 41.9387 10.1008 42.424C9.07418 42.9093 8.32751 43.7213 7.86084 44.86C7.39418 45.98 7.16084 47.52 7.16084 49.48C7.16084 51.4773 7.39418 53.036 7.86084 54.156C8.32751 55.276 9.06484 56.0787 10.0728 56.564C11.0995 57.0307 12.4902 57.264 14.2448 57.264C15.8315 57.264 17.2502 57.0773 18.5008 56.704V51.888L16.7088 51.076V49.48H22.6728ZM42.5824 57.46V59H39.3624L34.0984 51.104H29.2544V56.592L31.3264 57.46V59H24.7744V57.46L26.8464 56.592V42.368L24.7744 41.556V39.96H35.9464C37.757 39.96 39.129 40.436 40.0624 41.388C40.9957 42.3213 41.4624 43.7027 41.4624 45.532C41.4624 47.156 41.0704 48.4347 40.2864 49.368C39.521 50.2827 38.3917 50.8333 36.8984 51.02L40.6784 56.62L42.5824 57.46ZM29.2544 49.088H35.4424C36.693 49.088 37.589 48.8173 38.1304 48.276C38.6717 47.716 38.9424 46.8013 38.9424 45.532C38.9424 44.2813 38.681 43.376 38.1584 42.816C37.6544 42.256 36.8424 41.976 35.7224 41.976H29.2544V49.088ZM63.1873 57.46V59H56.7473V57.46L58.7073 56.704L57.1953 52.588H48.9353L47.3953 56.732L49.3833 57.46V59H43.4193V57.46L45.3513 56.592L51.7353 39.736H54.8713L61.2553 56.564L63.1873 57.46ZM56.4673 50.6L53.0793 41.416L49.6633 50.6H56.4673ZM86.0543 42.368V56.62L88.1263 57.46V59H81.7143V57.46L83.6463 56.62V41.808L77.2903 56.62H75.4143L69.0303 41.808V56.62L70.9623 57.46V59H64.9423V57.46L67.0143 56.62V42.368L64.9423 41.556V39.96H70.8503L76.5903 53.484L82.3303 39.96H88.1263V41.556L86.0543 42.368ZM112.332 42.368V56.62L114.404 57.46V59H107.992V57.46L109.924 56.62V41.808L103.568 56.62H101.692L95.3077 41.808V56.62L97.2397 57.46V59H91.2197V57.46L93.2917 56.62V42.368L91.2197 41.556V39.96H97.1277L102.868 53.484L108.608 39.96H114.404V41.556L112.332 42.368ZM135.949 57.46V59H129.509V57.46L131.469 56.704L129.957 52.588H121.697L120.157 56.732L122.145 57.46V59H116.181V57.46L118.113 56.592L124.497 39.736H127.633L134.017 56.564L135.949 57.46ZM129.229 50.6L125.841 41.416L122.425 50.6H129.229ZM155.512 57.46V59H152.292L147.028 51.104H142.184V56.592L144.256 57.46V59H137.704V57.46L139.776 56.592V42.368L137.704 41.556V39.96H148.876C150.687 39.96 152.059 40.436 152.992 41.388C153.925 42.3213 154.392 43.7027 154.392 45.532C154.392 47.156 154 48.4347 153.216 49.368C152.451 50.2827 151.321 50.8333 149.828 51.02L153.608 56.62L155.512 57.46ZM142.184 49.088H148.372C149.623 49.088 150.519 48.8173 151.06 48.276C151.601 47.716 151.872 46.8013 151.872 45.532C151.872 44.2813 151.611 43.376 151.088 42.816C150.584 42.256 149.772 41.976 148.652 41.976H142.184V49.088Z" fill="black"/>
</svg>
