<svg width="266" height="72" viewBox="0 0 266 72" fill="none" xmlns="http://www.w3.org/2000/svg">
<g filter="url(#filter0_i_67_3019)">
<rect width="266" height="72" rx="36" fill="#FF8037"/>
<path d="M34.7298 24.46C32.9298 24.46 31.4898 24.73 30.4098 25.27C29.3298 25.79 28.5298 26.65 28.0098 27.85C27.5098 29.05 27.2598 30.67 27.2598 32.71C27.2598 34.79 27.5098 36.45 28.0098 37.69C28.5298 38.91 29.3198 39.79 30.3798 40.33C31.4398 40.87 32.8298 41.14 34.5498 41.14C35.6498 41.14 36.7798 41.05 37.9398 40.87C39.1198 40.67 40.1998 40.36 41.1798 39.94V42.16C40.3398 42.54 39.3298 42.83 38.1498 43.03C36.9698 43.25 35.7698 43.36 34.5498 43.36C27.8898 43.36 24.5598 39.84 24.5598 32.8C24.5598 29.14 25.4398 26.47 27.1998 24.79C28.9598 23.09 31.5498 22.24 34.9698 22.24C36.9698 22.24 39.0398 22.48 41.1798 22.96V28.27H39.0798L38.5698 24.85C37.3298 24.59 36.0498 24.46 34.7298 24.46ZM54.0538 22.24C57.0938 22.24 59.4638 23.12 61.1638 24.88C62.8638 26.62 63.7138 29.26 63.7138 32.8C63.7138 36.34 62.8638 38.99 61.1638 40.75C59.4638 42.49 57.0938 43.36 54.0538 43.36C51.0138 43.36 48.6438 42.49 46.9438 40.75C45.2438 38.99 44.3938 36.34 44.3938 32.8C44.3938 29.26 45.2438 26.62 46.9438 24.88C48.6438 23.12 51.0138 22.24 54.0538 22.24ZM54.0538 24.46C52.4338 24.46 51.1138 24.73 50.0938 25.27C49.0938 25.81 48.3438 26.69 47.8438 27.91C47.3438 29.13 47.0938 30.76 47.0938 32.8C47.0938 34.84 47.3438 36.47 47.8438 37.69C48.3438 38.91 49.0938 39.79 50.0938 40.33C51.1138 40.87 52.4338 41.14 54.0538 41.14C55.6738 41.14 56.9838 40.87 57.9838 40.33C59.0038 39.79 59.7638 38.91 60.2638 37.69C60.7638 36.47 61.0138 34.84 61.0138 32.8C61.0138 30.76 60.7638 29.13 60.2638 27.91C59.7638 26.69 59.0038 25.81 57.9838 25.27C56.9838 24.73 55.6738 24.46 54.0538 24.46ZM89.23 25.18V40.45L91.45 41.35V43H84.58V41.35L86.65 40.45V24.58L79.84 40.45H77.83L70.99 24.58V40.45L73.06 41.35V43H66.61V41.35L68.83 40.45V25.18L66.61 24.31V22.6H72.94L79.09 37.09L85.24 22.6H91.45V24.31L89.23 25.18ZM101.784 24.31L99.5643 25.18V40.45L101.784 41.35V43H94.7643V41.35L96.9843 40.45V25.18L94.7643 24.31V22.6H101.784V24.31ZM126.317 22.6V24.31L124.097 25.18V43H121.037L109.487 25.81V40.45L111.857 41.35V43H105.077V41.35L107.297 40.45V25.18L105.077 24.31V22.6H110.357L121.877 39.76V25.18L119.507 24.31V22.6H126.317ZM148.235 32.8V34.51L146.315 35.38V42.28C145.275 42.62 144.125 42.88 142.865 43.06C141.625 43.26 140.445 43.36 139.325 43.36C135.845 43.36 133.235 42.52 131.495 40.84C129.775 39.16 128.915 36.48 128.915 32.8C128.915 29.14 129.785 26.47 131.525 24.79C133.285 23.09 135.885 22.24 139.325 22.24C141.525 22.24 143.855 22.51 146.315 23.05V28.36H144.215L143.705 24.97C142.285 24.63 140.815 24.46 139.295 24.46C137.395 24.46 135.885 24.72 134.765 25.24C133.665 25.76 132.865 26.63 132.365 27.85C131.865 29.05 131.615 30.7 131.615 32.8C131.615 34.94 131.865 36.61 132.365 37.81C132.865 39.01 133.655 39.87 134.735 40.39C135.835 40.89 137.325 41.14 139.205 41.14C140.905 41.14 142.425 40.94 143.765 40.54V35.38L141.845 34.51V32.8H148.235ZM168.225 31.6C169.885 31.92 171.115 32.26 171.915 32.62C172.735 32.98 173.325 33.52 173.685 34.24C174.065 34.94 174.255 35.96 174.255 37.3C174.255 38.8 173.985 39.98 173.445 40.84C172.905 41.7 172.055 42.32 170.895 42.7C169.735 43.06 168.155 43.24 166.155 43.24C163.455 43.24 160.955 42.94 158.655 42.34V37H160.725L161.235 40.45C162.835 40.83 164.505 41.02 166.245 41.02C167.725 41.02 168.845 40.91 169.605 40.69C170.385 40.47 170.915 40.13 171.195 39.67C171.475 39.19 171.615 38.54 171.615 37.72C171.615 36.72 171.495 36.02 171.255 35.62C171.015 35.22 170.535 34.91 169.815 34.69C169.095 34.47 167.705 34.17 165.645 33.79L164.895 33.64C163.255 33.34 161.985 32.98 161.085 32.56C160.205 32.12 159.575 31.55 159.195 30.85C158.835 30.15 158.655 29.22 158.655 28.06C158.655 26.64 158.915 25.52 159.435 24.7C159.975 23.86 160.815 23.26 161.955 22.9C163.095 22.54 164.615 22.36 166.515 22.36C168.855 22.36 171.275 22.62 173.775 23.14V28.39H171.795L171.315 25.06C169.795 24.74 168.155 24.58 166.395 24.58C165.015 24.58 163.955 24.69 163.215 24.91C162.475 25.11 161.965 25.43 161.685 25.87C161.425 26.29 161.295 26.87 161.295 27.61C161.295 28.53 161.425 29.19 161.685 29.59C161.965 29.99 162.465 30.3 163.185 30.52C163.925 30.74 165.295 31.04 167.295 31.42L168.225 31.6ZM186.739 22.24C189.779 22.24 192.149 23.12 193.849 24.88C195.549 26.62 196.399 29.26 196.399 32.8C196.399 36.34 195.549 38.99 193.849 40.75C192.149 42.49 189.779 43.36 186.739 43.36C183.699 43.36 181.329 42.49 179.629 40.75C177.929 38.99 177.079 36.34 177.079 32.8C177.079 29.26 177.929 26.62 179.629 24.88C181.329 23.12 183.699 22.24 186.739 22.24ZM186.739 24.46C185.119 24.46 183.799 24.73 182.779 25.27C181.779 25.81 181.029 26.69 180.529 27.91C180.029 29.13 179.779 30.76 179.779 32.8C179.779 34.84 180.029 36.47 180.529 37.69C181.029 38.91 181.779 39.79 182.779 40.33C183.799 40.87 185.119 41.14 186.739 41.14C188.359 41.14 189.669 40.87 190.669 40.33C191.689 39.79 192.449 38.91 192.949 37.69C193.449 36.47 193.699 34.84 193.699 32.8C193.699 30.76 193.449 29.13 192.949 27.91C192.449 26.69 191.689 25.81 190.669 25.27C189.669 24.73 188.359 24.46 186.739 24.46ZM208.566 22.24C211.606 22.24 213.976 23.12 215.676 24.88C217.376 26.62 218.226 29.26 218.226 32.8C218.226 36.34 217.376 38.99 215.676 40.75C213.976 42.49 211.606 43.36 208.566 43.36C205.526 43.36 203.156 42.49 201.456 40.75C199.756 38.99 198.906 36.34 198.906 32.8C198.906 29.26 199.756 26.62 201.456 24.88C203.156 23.12 205.526 22.24 208.566 22.24ZM208.566 24.46C206.946 24.46 205.626 24.73 204.606 25.27C203.606 25.81 202.856 26.69 202.356 27.91C201.856 29.13 201.606 30.76 201.606 32.8C201.606 34.84 201.856 36.47 202.356 37.69C202.856 38.91 203.606 39.79 204.606 40.33C205.626 40.87 206.946 41.14 208.566 41.14C210.186 41.14 211.496 40.87 212.496 40.33C213.516 39.79 214.276 38.91 214.776 37.69C215.276 36.47 215.526 34.84 215.526 32.8C215.526 30.76 215.276 29.13 214.776 27.91C214.276 26.69 213.516 25.81 212.496 25.27C211.496 24.73 210.186 24.46 208.566 24.46ZM242.362 22.6V24.31L240.142 25.18V43H237.082L225.532 25.81V40.45L227.902 41.35V43H221.122V41.35L223.342 40.45V25.18L221.122 24.31V22.6H226.402L237.922 39.76V25.18L235.552 24.31V22.6H242.362Z" fill="black"/>
</g>
<defs>
<filter id="filter0_i_67_3019" x="0" y="0" width="270" height="76" filterUnits="userSpaceOnUse" color-interpolation-filters="sRGB">
<feFlood flood-opacity="0" result="BackgroundImageFix"/>
<feBlend mode="normal" in="SourceGraphic" in2="BackgroundImageFix" result="shape"/>
<feColorMatrix in="SourceAlpha" type="matrix" values="0 0 0 0 0 0 0 0 0 0 0 0 0 0 0 0 0 0 127 0" result="hardAlpha"/>
<feOffset dx="5" dy="7"/>
<feGaussianBlur stdDeviation="2"/>
<feComposite in2="hardAlpha" operator="arithmetic" k2="-1" k3="1"/>
<feColorMatrix type="matrix" values="0 0 0 0 0 0 0 0 0 0 0 0 0 0 0 0 0 0 0.25 0"/>
<feBlend mode="normal" in2="shape" result="effect1_innerShadow_67_3019"/>
</filter>
</defs>
</svg>
