<svg width="45" height="45" viewBox="0 0 45 45" fill="none" xmlns="http://www.w3.org/2000/svg">
<path d="M25.7437 39.375C25.4141 39.9433 24.941 40.415 24.3717 40.7429C23.8024 41.0708 23.157 41.2434 22.5 41.2434C21.843 41.2434 21.1976 41.0708 20.6283 40.7429C20.059 40.415 19.5859 39.9433 19.2563 39.375M33.75 15C33.75 12.0163 32.5647 9.15483 30.455 7.04505C28.3452 4.93526 25.4837 3.75 22.5 3.75C19.5163 3.75 16.6548 4.93526 14.545 7.04505C12.4353 9.15483 11.25 12.0163 11.25 15C11.25 28.125 5.625 31.875 5.625 31.875H39.375C39.375 31.875 33.75 28.125 33.75 15Z" stroke="#1E1E1E" stroke-width="4" stroke-linecap="round" stroke-linejoin="round"/>
</svg>
