<svg width="266" height="72" viewBox="0 0 266 72" fill="none" xmlns="http://www.w3.org/2000/svg">
<g filter="url(#filter0_i_67_3023)">
<rect width="266" height="72" rx="36" fill="#FFB30D"/>
<path d="M82.4734 27.91H80.7034L79.9234 24.76H69.7234V31.66H75.6934L76.1434 29.35H77.7934V36.13H76.1434L75.6934 33.82H69.7234V40.84H79.9234L80.7034 37.39H82.4734V43H64.9234V41.35L67.1434 40.45V25.18L64.9234 24.31V22.6H82.4734V27.91ZM103.635 25.15L96.9449 32.71L103.635 40.45L105.705 41.35V43H98.0849V41.35L100.305 40.45L95.1149 34.45L89.9249 40.45L92.1449 41.35V43H84.9449V41.35L87.0149 40.45L93.7649 32.86L87.1349 25.18L85.0649 24.31V22.6H92.6849V24.31L90.4649 25.18L95.6249 31.18L100.785 25.15L98.5649 24.25V22.6H105.705V24.25L103.635 25.15ZM113.054 34.9V40.42L115.274 41.35V43H108.254V41.35L110.474 40.42V25.18L108.254 24.31V22.6H120.194C122.134 22.6 123.604 23.12 124.604 24.16C125.604 25.2 126.104 26.73 126.104 28.75C126.104 30.77 125.574 32.3 124.514 33.34C123.474 34.38 121.944 34.9 119.924 34.9H113.054ZM123.404 28.75C123.404 27.35 123.124 26.34 122.564 25.72C122.024 25.08 121.154 24.76 119.954 24.76H113.054V32.74H119.654C120.994 32.74 121.954 32.43 122.534 31.81C123.114 31.19 123.404 30.17 123.404 28.75ZM135.664 24.31L133.444 25.18V40.45L135.664 41.35V43H128.644V41.35L130.864 40.45V25.18L128.644 24.31V22.6H135.664V24.31ZM158.037 41.35V43H154.587L148.947 34.54H143.757V40.42L145.977 41.35V43H138.957V41.35L141.177 40.42V25.18L138.957 24.31V22.6H150.927C152.867 22.6 154.337 23.11 155.337 24.13C156.337 25.13 156.837 26.61 156.837 28.57C156.837 30.31 156.417 31.68 155.577 32.68C154.757 33.66 153.547 34.25 151.947 34.45L155.997 40.45L158.037 41.35ZM143.757 32.38H150.387C151.727 32.38 152.687 32.09 153.267 31.51C153.847 30.91 154.137 29.93 154.137 28.57C154.137 27.23 153.857 26.26 153.297 25.66C152.757 25.06 151.887 24.76 150.687 24.76H143.757V32.38ZM178.333 27.91H176.563L175.783 24.76H165.583V31.66H171.553L172.003 29.35H173.653V36.13H172.003L171.553 33.82H165.583V40.84H175.783L176.563 37.39H178.333V43H160.783V41.35L163.003 40.45V25.18L160.783 24.31V22.6H178.333V27.91ZM192.324 22.6C194.984 22.6 197.174 23.37 198.894 24.91C200.614 26.45 201.474 29.06 201.474 32.74C201.474 36.48 200.614 39.13 198.894 40.69C197.174 42.23 194.984 43 192.324 43H181.554V41.35L184.254 40.42V25.18L181.554 24.31V22.6H192.324ZM186.834 24.76V40.84H191.694C193.194 40.84 194.454 40.62 195.474 40.18C196.494 39.72 197.294 38.9 197.874 37.72C198.474 36.52 198.774 34.86 198.774 32.74C198.774 30.66 198.474 29.04 197.874 27.88C197.294 26.7 196.494 25.89 195.474 25.45C194.454 24.99 193.194 24.76 191.694 24.76H186.834Z" fill="black"/>
</g>
<defs>
<filter id="filter0_i_67_3023" x="0" y="0" width="270" height="76" filterUnits="userSpaceOnUse" color-interpolation-filters="sRGB">
<feFlood flood-opacity="0" result="BackgroundImageFix"/>
<feBlend mode="normal" in="SourceGraphic" in2="BackgroundImageFix" result="shape"/>
<feColorMatrix in="SourceAlpha" type="matrix" values="0 0 0 0 0 0 0 0 0 0 0 0 0 0 0 0 0 0 127 0" result="hardAlpha"/>
<feOffset dx="5" dy="7"/>
<feGaussianBlur stdDeviation="2"/>
<feComposite in2="hardAlpha" operator="arithmetic" k2="-1" k3="1"/>
<feColorMatrix type="matrix" values="0 0 0 0 0 0 0 0 0 0 0 0 0 0 0 0 0 0 0.25 0"/>
<feBlend mode="normal" in2="shape" result="effect1_innerShadow_67_3023"/>
</filter>
</defs>
</svg>
