<svg width="266" height="72" viewBox="0 0 266 72" fill="none" xmlns="http://www.w3.org/2000/svg">
<g filter="url(#filter0_i_67_3021)">
<rect width="266" height="72" rx="36" fill="#109A7C" fill-opacity="0.5"/>
<path d="M87.1147 28.09H85.3747L84.5647 24.76H74.5447V31.93H80.3047L80.7547 29.59H82.4047V36.52H80.7547L80.3047 34.09H74.5447V40.45L77.2747 41.35V43H69.7447V41.35L71.9647 40.45V25.18L69.7447 24.31V22.6H87.1147V28.09ZM111.046 24.31L108.526 25.18V34.99C108.526 38.05 107.866 40.23 106.546 41.53C105.246 42.81 103.236 43.45 100.516 43.45C97.7361 43.45 95.6261 42.81 94.1861 41.53C92.7461 40.23 92.0261 38.12 92.0261 35.2V25.18L89.8061 24.31V22.6H96.8261V24.31L94.6061 25.18V34.99C94.6061 36.57 94.8161 37.82 95.2361 38.74C95.6761 39.64 96.3261 40.28 97.1861 40.66C98.0661 41.04 99.2161 41.23 100.636 41.23C101.976 41.23 103.056 41.06 103.876 40.72C104.696 40.36 105.316 39.75 105.736 38.89C106.156 38.01 106.366 36.78 106.366 35.2V25.18L103.936 24.31V22.6H111.046V24.31ZM131.625 28.36H129.975L129.105 24.76H123.675V40.45L126.195 41.35V43H118.575V41.35L121.095 40.45V24.76H115.665L114.795 28.36H113.145V22.6H131.625V28.36ZM155.109 24.31L152.589 25.18V34.99C152.589 38.05 151.929 40.23 150.609 41.53C149.309 42.81 147.299 43.45 144.579 43.45C141.799 43.45 139.689 42.81 138.249 41.53C136.809 40.23 136.089 38.12 136.089 35.2V25.18L133.869 24.31V22.6H140.889V24.31L138.669 25.18V34.99C138.669 36.57 138.879 37.82 139.299 38.74C139.739 39.64 140.389 40.28 141.249 40.66C142.129 41.04 143.279 41.23 144.699 41.23C146.039 41.23 147.119 41.06 147.939 40.72C148.759 40.36 149.379 39.75 149.799 38.89C150.219 38.01 150.429 36.78 150.429 35.2V25.18L147.999 24.31V22.6H155.109V24.31ZM177.038 41.35V43H173.588L167.948 34.54H162.758V40.42L164.978 41.35V43H157.958V41.35L160.178 40.42V25.18L157.958 24.31V22.6H169.928C171.868 22.6 173.338 23.11 174.338 24.13C175.338 25.13 175.838 26.61 175.838 28.57C175.838 30.31 175.418 31.68 174.578 32.68C173.758 33.66 172.548 34.25 170.948 34.45L174.998 40.45L177.038 41.35ZM162.758 32.38H169.388C170.728 32.38 171.688 32.09 172.268 31.51C172.848 30.91 173.138 29.93 173.138 28.57C173.138 27.23 172.858 26.26 172.298 25.66C171.758 25.06 170.888 24.76 169.688 24.76H162.758V32.38ZM197.334 27.91H195.564L194.784 24.76H184.584V31.66H190.554L191.004 29.35H192.654V36.13H191.004L190.554 33.82H184.584V40.84H194.784L195.564 37.39H197.334V43H179.784V41.35L182.004 40.45V25.18L179.784 24.31V22.6H197.334V27.91Z" fill="black"/>
</g>
<defs>
<filter id="filter0_i_67_3021" x="0" y="0" width="270" height="76" filterUnits="userSpaceOnUse" color-interpolation-filters="sRGB">
<feFlood flood-opacity="0" result="BackgroundImageFix"/>
<feBlend mode="normal" in="SourceGraphic" in2="BackgroundImageFix" result="shape"/>
<feColorMatrix in="SourceAlpha" type="matrix" values="0 0 0 0 0 0 0 0 0 0 0 0 0 0 0 0 0 0 127 0" result="hardAlpha"/>
<feOffset dx="5" dy="7"/>
<feGaussianBlur stdDeviation="2"/>
<feComposite in2="hardAlpha" operator="arithmetic" k2="-1" k3="1"/>
<feColorMatrix type="matrix" values="0 0 0 0 0 0 0 0 0 0 0 0 0 0 0 0 0 0 0.25 0"/>
<feBlend mode="normal" in2="shape" result="effect1_innerShadow_67_3021"/>
</filter>
</defs>
</svg>
