<svg width="266" height="72" viewBox="0 0 266 72" fill="none" xmlns="http://www.w3.org/2000/svg">
<g filter="url(#filter0_i_67_3015)">
<rect width="266" height="72" rx="36" fill="#109A7C"/>
<path d="M100.598 28.36H98.9478L98.0778 24.76H92.6478V40.45L95.1678 41.35V43H87.5478V41.35L90.0678 40.45V24.76H84.6378L83.7678 28.36H82.1178V22.6H100.598V28.36ZM112.411 22.24C115.451 22.24 117.821 23.12 119.521 24.88C121.221 26.62 122.071 29.26 122.071 32.8C122.071 36.34 121.221 38.99 119.521 40.75C117.821 42.49 115.451 43.36 112.411 43.36C109.371 43.36 107.001 42.49 105.301 40.75C103.601 38.99 102.751 36.34 102.751 32.8C102.751 29.26 103.601 26.62 105.301 24.88C107.001 23.12 109.371 22.24 112.411 22.24ZM112.411 24.46C110.791 24.46 109.471 24.73 108.451 25.27C107.451 25.81 106.701 26.69 106.201 27.91C105.701 29.13 105.451 30.76 105.451 32.8C105.451 34.84 105.701 36.47 106.201 37.69C106.701 38.91 107.451 39.79 108.451 40.33C109.471 40.87 110.791 41.14 112.411 41.14C114.031 41.14 115.341 40.87 116.341 40.33C117.361 39.79 118.121 38.91 118.621 37.69C119.121 36.47 119.371 34.84 119.371 32.8C119.371 30.76 119.121 29.13 118.621 27.91C118.121 26.69 117.361 25.81 116.341 25.27C115.341 24.73 114.031 24.46 112.411 24.46ZM135.737 22.6C138.397 22.6 140.587 23.37 142.307 24.91C144.027 26.45 144.887 29.06 144.887 32.74C144.887 36.48 144.027 39.13 142.307 40.69C140.587 42.23 138.397 43 135.737 43H124.967V41.35L127.667 40.42V25.18L124.967 24.31V22.6H135.737ZM130.247 24.76V40.84H135.107C136.607 40.84 137.867 40.62 138.887 40.18C139.907 39.72 140.707 38.9 141.287 37.72C141.887 36.52 142.187 34.86 142.187 32.74C142.187 30.66 141.887 29.04 141.287 27.88C140.707 26.7 139.907 25.89 138.887 25.45C137.867 24.99 136.607 24.76 135.107 24.76H130.247ZM166.066 41.35V43H159.166V41.35L161.266 40.54L159.646 36.13H150.796L149.146 40.57L151.276 41.35V43H144.886V41.35L146.956 40.42L153.796 22.36H157.156L163.996 40.39L166.066 41.35ZM158.866 34L155.236 24.16L151.576 34H158.866ZM184.174 22.6V24.31L182.254 25.18L175.624 35.05V40.45L178.144 41.35V43H170.524V41.35L173.044 40.45V35.05L166.444 25.18L164.494 24.31V22.6H171.514V24.31L169.414 25.18L174.544 32.98L179.674 25.18L177.604 24.31V22.6H184.174Z" fill="black"/>
</g>
<defs>
<filter id="filter0_i_67_3015" x="0" y="0" width="270" height="76" filterUnits="userSpaceOnUse" color-interpolation-filters="sRGB">
<feFlood flood-opacity="0" result="BackgroundImageFix"/>
<feBlend mode="normal" in="SourceGraphic" in2="BackgroundImageFix" result="shape"/>
<feColorMatrix in="SourceAlpha" type="matrix" values="0 0 0 0 0 0 0 0 0 0 0 0 0 0 0 0 0 0 127 0" result="hardAlpha"/>
<feOffset dx="5" dy="7"/>
<feGaussianBlur stdDeviation="2"/>
<feComposite in2="hardAlpha" operator="arithmetic" k2="-1" k3="1"/>
<feColorMatrix type="matrix" values="0 0 0 0 0 0 0 0 0 0 0 0 0 0 0 0 0 0 0.25 0"/>
<feBlend mode="normal" in2="shape" result="effect1_innerShadow_67_3015"/>
</filter>
</defs>
</svg>
