<svg width="266" height="72" viewBox="0 0 266 72" fill="none" xmlns="http://www.w3.org/2000/svg">
<g filter="url(#filter0_i_67_3017)">
<rect width="266" height="72" rx="36" fill="#4F5F9C"/>
<path d="M58.8517 28.36H57.2017L56.3317 24.76H50.9017V40.45L53.4217 41.35V43H45.8017V41.35L48.3217 40.45V24.76H42.8917L42.0217 28.36H40.3717V22.6H58.8517V28.36ZM70.6651 22.24C73.7051 22.24 76.0751 23.12 77.7751 24.88C79.4751 26.62 80.3251 29.26 80.3251 32.8C80.3251 36.34 79.4751 38.99 77.7751 40.75C76.0751 42.49 73.7051 43.36 70.6651 43.36C67.6251 43.36 65.2551 42.49 63.5551 40.75C61.8551 38.99 61.0051 36.34 61.0051 32.8C61.0051 29.26 61.8551 26.62 63.5551 24.88C65.2551 23.12 67.6251 22.24 70.6651 22.24ZM70.6651 24.46C69.0451 24.46 67.7251 24.73 66.7051 25.27C65.7051 25.81 64.9551 26.69 64.4551 27.91C63.9551 29.13 63.7051 30.76 63.7051 32.8C63.7051 34.84 63.9551 36.47 64.4551 37.69C64.9551 38.91 65.7051 39.79 66.7051 40.33C67.7251 40.87 69.0451 41.14 70.6651 41.14C72.2851 41.14 73.5951 40.87 74.5951 40.33C75.6151 39.79 76.3751 38.91 76.8751 37.69C77.3751 36.47 77.6251 34.84 77.6251 32.8C77.6251 30.76 77.3751 29.13 76.8751 27.91C76.3751 26.69 75.6151 25.81 74.5951 25.27C73.5951 24.73 72.2851 24.46 70.6651 24.46ZM105.841 25.18V40.45L108.061 41.35V43H101.191V41.35L103.261 40.45V24.58L96.4513 40.45H94.4413L87.6013 24.58V40.45L89.6713 41.35V43H83.2213V41.35L85.4413 40.45V25.18L83.2213 24.31V22.6H89.5513L95.7013 37.09L101.851 22.6H108.061V24.31L105.841 25.18ZM120.646 22.24C123.686 22.24 126.056 23.12 127.756 24.88C129.456 26.62 130.306 29.26 130.306 32.8C130.306 36.34 129.456 38.99 127.756 40.75C126.056 42.49 123.686 43.36 120.646 43.36C117.606 43.36 115.236 42.49 113.536 40.75C111.836 38.99 110.986 36.34 110.986 32.8C110.986 29.26 111.836 26.62 113.536 24.88C115.236 23.12 117.606 22.24 120.646 22.24ZM120.646 24.46C119.026 24.46 117.706 24.73 116.686 25.27C115.686 25.81 114.936 26.69 114.436 27.91C113.936 29.13 113.686 30.76 113.686 32.8C113.686 34.84 113.936 36.47 114.436 37.69C114.936 38.91 115.686 39.79 116.686 40.33C117.706 40.87 119.026 41.14 120.646 41.14C122.266 41.14 123.576 40.87 124.576 40.33C125.596 39.79 126.356 38.91 126.856 37.69C127.356 36.47 127.606 34.84 127.606 32.8C127.606 30.76 127.356 29.13 126.856 27.91C126.356 26.69 125.596 25.81 124.576 25.27C123.576 24.73 122.266 24.46 120.646 24.46ZM152.282 41.35V43H148.832L143.192 34.54H138.002V40.42L140.222 41.35V43H133.202V41.35L135.422 40.42V25.18L133.202 24.31V22.6H145.172C147.112 22.6 148.582 23.11 149.582 24.13C150.582 25.13 151.082 26.61 151.082 28.57C151.082 30.31 150.662 31.68 149.822 32.68C149.002 33.66 147.792 34.25 146.192 34.45L150.242 40.45L152.282 41.35ZM138.002 32.38H144.632C145.972 32.38 146.932 32.09 147.512 31.51C148.092 30.91 148.382 29.93 148.382 28.57C148.382 27.23 148.102 26.26 147.542 25.66C147.002 25.06 146.132 24.76 144.932 24.76H138.002V32.38ZM174.108 41.35V43H170.658L165.018 34.54H159.828V40.42L162.048 41.35V43H155.028V41.35L157.248 40.42V25.18L155.028 24.31V22.6H166.998C168.938 22.6 170.408 23.11 171.408 24.13C172.408 25.13 172.908 26.61 172.908 28.57C172.908 30.31 172.488 31.68 171.648 32.68C170.828 33.66 169.618 34.25 168.018 34.45L172.068 40.45L174.108 41.35ZM159.828 32.38H166.458C167.798 32.38 168.758 32.09 169.338 31.51C169.918 30.91 170.208 29.93 170.208 28.57C170.208 27.23 169.928 26.26 169.368 25.66C168.828 25.06 167.958 24.76 166.758 24.76H159.828V32.38ZM186.124 22.24C189.164 22.24 191.534 23.12 193.234 24.88C194.934 26.62 195.784 29.26 195.784 32.8C195.784 36.34 194.934 38.99 193.234 40.75C191.534 42.49 189.164 43.36 186.124 43.36C183.084 43.36 180.714 42.49 179.014 40.75C177.314 38.99 176.464 36.34 176.464 32.8C176.464 29.26 177.314 26.62 179.014 24.88C180.714 23.12 183.084 22.24 186.124 22.24ZM186.124 24.46C184.504 24.46 183.184 24.73 182.164 25.27C181.164 25.81 180.414 26.69 179.914 27.91C179.414 29.13 179.164 30.76 179.164 32.8C179.164 34.84 179.414 36.47 179.914 37.69C180.414 38.91 181.164 39.79 182.164 40.33C183.184 40.87 184.504 41.14 186.124 41.14C187.744 41.14 189.054 40.87 190.054 40.33C191.074 39.79 191.834 38.91 192.334 37.69C192.834 36.47 193.084 34.84 193.084 32.8C193.084 30.76 192.834 29.13 192.334 27.91C191.834 26.69 191.074 25.81 190.054 25.27C189.054 24.73 187.744 24.46 186.124 24.46ZM226.846 22.6V24.31L224.776 25.18L219.436 43H216.406L211.846 27.01L207.196 43H204.136L198.736 25.18L196.666 24.31V22.6H203.656V24.31L201.436 25.18L205.876 40.3L210.406 24.25H213.556L218.116 40.27L222.526 25.18L220.306 24.31V22.6H226.846Z" fill="black"/>
</g>
<defs>
<filter id="filter0_i_67_3017" x="0" y="0" width="270" height="76" filterUnits="userSpaceOnUse" color-interpolation-filters="sRGB">
<feFlood flood-opacity="0" result="BackgroundImageFix"/>
<feBlend mode="normal" in="SourceGraphic" in2="BackgroundImageFix" result="shape"/>
<feColorMatrix in="SourceAlpha" type="matrix" values="0 0 0 0 0 0 0 0 0 0 0 0 0 0 0 0 0 0 127 0" result="hardAlpha"/>
<feOffset dx="5" dy="7"/>
<feGaussianBlur stdDeviation="2"/>
<feComposite in2="hardAlpha" operator="arithmetic" k2="-1" k3="1"/>
<feColorMatrix type="matrix" values="0 0 0 0 0 0 0 0 0 0 0 0 0 0 0 0 0 0 0.25 0"/>
<feBlend mode="normal" in2="shape" result="effect1_innerShadow_67_3017"/>
</filter>
</defs>
</svg>
